<svg width="30pt" height="16pt" viewBox="0 0 30 16" xmlns="http://www.w3.org/2000/svg">
    <g id="fontsvg1674048813629" stroke-linecap="round" fill-rule="evenodd" fill="#582">
        <path
            d="M 22.705 3.897 L 21.563 3.809 A 8.486 8.486 0 0 0 21.393 4.067 Q 21.064 4.591 21.064 4.805 L 21.182 4.805 A 1.531 1.531 0 0 1 21.469 4.713 Q 22.185 4.544 24.161 4.428 A 62.821 62.821 0 0 1 24.229 4.424 Q 29.268 4.688 29.678 6.182 Q 29.678 7.551 26.197 7.998 A 21.191 21.191 0 0 1 25.371 8.086 L 23.35 8.086 Q 21.855 8.086 21.328 7.852 A 348.098 348.098 0 0 0 19.977 8.427 Q 15.635 10.288 15.249 10.621 A 0.279 0.279 0 0 0 15.234 10.635 L 15.234 15.059 A 0.767 0.767 0 0 1 14.695 15.541 Q 14.532 15.586 14.326 15.586 L 14.209 15.586 A 1.392 1.392 0 0 1 13.886 15.552 Q 13.68 15.502 13.54 15.384 A 0.757 0.757 0 0 1 13.33 15.088 L 13.33 11.28 A 35.752 35.752 0 0 1 11.295 10.815 Q 10.17 10.526 8.912 10.139 A 70.639 70.639 0 0 1 7.354 9.639 L 7.119 9.756 L 6.973 9.756 Q 6.137 9.756 5.471 9.87 A 6.467 6.467 0 0 0 5.449 9.873 A 23.855 23.855 0 0 1 3.704 9.704 Q 0.286 9.232 0 7.852 L 0 7.471 A 0.708 0.708 0 0 1 0.253 6.971 Q 0.767 6.47 2.33 6.005 A 21.039 21.039 0 0 1 3.428 5.713 A 34.341 34.341 0 0 1 4.037 5.649 Q 4.9 5.567 5.449 5.567 L 6.973 5.684 L 7.09 5.684 L 7.09 5.567 Q 6.504 5.567 6.357 4.571 L 6.357 4.043 Q 7.325 2.385 10.507 2.291 A 13.234 13.234 0 0 1 10.898 2.285 L 11.924 2.285 L 12.539 2.403 L 12.422 1.758 L 12.422 1.26 Q 13.148 0.104 14.886 0.009 A 5.851 5.851 0 0 1 15.205 0 Q 17.373 0 18.135 1.641 A 3.299 3.299 0 0 1 19.639 2.015 A 4.656 4.656 0 0 1 20.42 2.52 A 0.268 0.268 0 0 1 20.552 2.315 Q 20.916 2.042 22.288 1.821 A 21.2 21.2 0 0 1 22.705 1.758 A 7.902 7.902 0 0 1 23.607 1.805 Q 25.208 1.99 25.488 2.901 Q 25.488 3.635 23.407 3.844 A 14.889 14.889 0 0 1 22.705 3.897 Z M 16.23 5.801 L 16.729 5.801 Q 18.633 5.948 18.633 6.446 L 18.633 6.563 Q 18.633 7.025 17.238 7.164 A 11.317 11.317 0 0 1 16.611 7.207 L 15.615 7.207 L 15.234 8.614 L 15.234 9.229 L 15.352 9.229 Q 18.483 7.887 18.866 7.639 A 0.439 0.439 0 0 0 18.896 7.617 A 4.071 4.071 0 0 0 18.993 7.424 Q 19.128 7.137 19.131 6.98 A 0.37 0.37 0 0 0 19.131 6.973 A 0.16 0.16 0 0 1 19.044 6.943 Q 18.945 6.878 18.824 6.672 A 2.513 2.513 0 0 1 18.779 6.592 L 18.779 6.094 A 0.898 0.898 0 0 1 18.954 5.84 Q 19.373 5.385 20.654 4.688 Q 20.654 4.424 21.083 3.803 A 8.514 8.514 0 0 1 21.182 3.662 L 20.303 3.164 L 20.186 3.164 A 0.266 0.266 0 0 1 20.05 3.363 Q 19.644 3.659 18.027 3.955 A 28.972 28.972 0 0 1 17.52 4.043 A 5.274 5.274 0 0 0 16.978 4.483 Q 16.274 5.142 16.23 5.801 Z M 19.395 6.328 L 19.395 6.446 A 5.863 5.863 0 0 0 20.822 7.06 Q 22.226 7.471 24.229 7.471 A 25.735 25.735 0 0 0 25.634 7.395 Q 27.741 7.218 28.539 6.697 A 1.177 1.177 0 0 0 28.916 6.328 Q 28.133 5.374 25.917 5.217 A 13.147 13.147 0 0 0 24.99 5.186 L 23.584 5.186 A 13.228 13.228 0 0 0 22.198 5.253 Q 20.778 5.403 19.954 5.89 A 2.557 2.557 0 0 0 19.395 6.328 Z M 4.424 9.112 L 5.713 9.112 A 11.355 11.355 0 0 0 7.077 9.036 Q 9.11 8.789 9.873 7.735 Q 9.375 6.475 5.068 6.211 A 30.758 30.758 0 0 0 3.678 6.397 Q 0.912 6.838 0.668 7.563 A 0.445 0.445 0 0 0 0.645 7.705 Q 1.729 9.112 4.424 9.112 Z M 6.973 4.278 L 6.973 4.541 Q 7.922 5.882 10.63 5.944 A 11.655 11.655 0 0 0 10.898 5.948 A 10.926 10.926 0 0 0 12.237 5.872 Q 14.23 5.625 14.971 4.571 L 14.971 4.307 Q 14.011 2.991 11.306 2.906 A 12.15 12.15 0 0 0 10.928 2.901 A 9.584 9.584 0 0 0 9.593 2.987 Q 7.998 3.212 7.193 4.026 A 2.638 2.638 0 0 0 6.973 4.278 Z M 11.924 6.592 L 9.902 6.563 L 10.518 7.324 L 10.518 7.705 A 1.046 1.046 0 0 1 10.316 8.302 Q 9.99 8.777 9.141 9.229 A 494.945 494.945 0 0 0 10.071 9.497 Q 12.829 10.288 13.24 10.363 A 0.396 0.396 0 0 0 13.301 10.371 L 13.301 8.731 A 1.13 1.13 0 0 0 13.209 8.319 Q 12.971 7.722 12.116 6.796 A 14.979 14.979 0 0 0 11.924 6.592 Z M 14.824 2.637 L 15.205 2.637 A 4.148 4.148 0 0 0 15.992 2.567 Q 16.91 2.39 17.373 1.758 A 1.351 1.351 0 0 0 16.688 0.977 Q 16.16 0.692 15.264 0.63 A 7.161 7.161 0 0 0 14.971 0.615 Q 14.011 0.615 13.133 1.431 A 4.503 4.503 0 0 0 13.066 1.494 A 0.907 0.907 0 0 0 13.577 2.321 Q 13.969 2.544 14.66 2.621 A 5.851 5.851 0 0 0 14.824 2.637 Z M 16.291 6.93 A 14.578 14.578 0 0 0 16.494 6.944 A 15.219 15.219 0 0 0 17.001 6.894 Q 18.252 6.747 18.252 6.475 A 0.973 0.973 0 0 0 18.025 6.367 Q 17.629 6.227 16.773 6.14 A 18.601 18.601 0 0 0 16.23 6.094 A 13.286 13.286 0 0 0 15.758 6.144 Q 14.59 6.291 14.59 6.563 Q 15.025 6.834 16.291 6.93 Z M 21.035 2.783 L 21.035 2.901 L 22.822 3.281 A 17.478 17.478 0 0 0 23.337 3.215 Q 24.609 3.031 24.609 2.783 Q 24.111 2.52 23.203 2.52 L 22.588 2.52 A 3.962 3.962 0 0 0 22.067 2.557 Q 21.603 2.619 21.035 2.783 Z M 18.018 2.403 L 17.754 2.256 A 0.162 0.162 0 0 1 17.723 2.333 Q 17.589 2.545 16.875 3.164 Q 17.687 3.164 17.837 3.242 A 0.05 0.05 0 0 1 17.871 3.281 A 13.367 13.367 0 0 0 18.344 3.223 Q 19.512 3.055 19.512 2.783 A 0.174 0.174 0 0 0 19.437 2.655 Q 19.209 2.462 18.281 2.285 L 18.018 2.403 Z M 15.469 3.281 L 15.234 3.281 L 15.234 3.399 Q 15.52 3.684 15.574 4.433 A 5.216 5.216 0 0 1 15.586 4.805 L 15.732 4.805 Q 15.967 4.043 15.967 3.428 A 0.779 0.779 0 0 0 15.629 3.293 A 1.038 1.038 0 0 0 15.469 3.281 Z M 13.066 6.328 L 13.066 6.446 A 14.229 14.229 0 0 0 13.256 6.768 Q 13.683 7.471 13.828 7.471 L 13.828 7.237 Q 13.716 6.367 13.711 6.222 A 0.348 0.348 0 0 1 13.711 6.211 A 0.692 0.692 0 0 1 13.56 6.273 Q 13.403 6.318 13.172 6.327 A 2.98 2.98 0 0 1 13.066 6.328 Z M 15.586 4.951 L 15.469 4.922 A 0.361 0.361 0 0 1 15.421 5.083 Q 15.302 5.313 14.885 5.692 A 9.13 9.13 0 0 1 14.59 5.948 L 14.59 6.065 A 0.794 0.794 0 0 0 15.182 5.794 Q 15.414 5.549 15.581 5.083 A 3.61 3.61 0 0 0 15.586 5.069 L 15.586 4.951 Z M 16.875 4.043 L 16.992 4.043 A 0.432 0.432 0 0 0 17.092 4.033 Q 17.226 4.001 17.25 3.871 A 0.338 0.338 0 0 0 17.256 3.809 L 17.139 3.809 Q 16.875 3.838 16.875 4.043 Z"
            vector-effect="non-scaling-stroke" />
    </g>
</svg>